<svg width="130" height="47" viewBox="0 0 130 47" fill="none" xmlns="http://www.w3.org/2000/svg">
<path d="M41.171 21.8227L45.5693 13.6968C35.7623 19.3651 28.42 18.0773 32.4694 12.3576C34.4648 9.53944 38.5887 6.58547 43.9083 5.25244C36.7525 8.47688 37.2083 16.4199 46.6689 11.6225C49.5476 6.53187 50.3821 3.87548 53.3353 2.09375C17.8695 2.09375 17.6429 29.3797 41.171 21.8227Z" fill="white"/>
<path d="M56.8449 9.26252C53.1305 11.2951 47.8497 13.0076 47.8497 13.0076C47.8497 13.0076 43.8361 20.3614 43.4887 20.9771C42.5637 22.6162 41.407 23.1611 41.407 23.1611L49.3445 23.1449L56.8449 9.26221V9.26252Z" fill="white"/>
<path d="M55.6529 2.0924C52.5781 3.63575 50.6577 6.8577 48.8721 11.0176C59.1067 7.11072 59.8362 5.54773 63.7327 0C56.9755 4.80114 55.6529 2.0924 55.6529 2.0924Z" fill="white"/>
<path d="M78.9547 5.71001C70.5343 9.07155 66.6228 11.7803 62.4666 14.9608L65.4863 9.65518C67.5932 6.13939 69.0311 5.22921 71.668 5.27377L70.2267 7.68244L75.4608 5.5084C79.6193 3.51821 80.1636 2.09357 80.1639 2.09326H66.4451C63.2871 2.09326 61.4195 4.78798 58.6931 9.39905L51.2107 23.1453L58.1742 23.1288C61.0171 17.6755 68.9376 12.6194 66.6297 19.5778L65.3285 23.1291L72.2997 23.145L72.9646 19.2503C74.7384 8.68018 78.9547 5.70938 78.9547 5.70938V5.71001Z" fill="white"/>
<path d="M90.9801 2.09375C84.7959 2.09375 78.3715 6.80639 76.6309 12.6196C74.8904 18.4331 78.4923 23.1458 84.6763 23.1458C90.8602 23.1458 97.2849 18.4331 99.0255 12.6196C100.766 6.80639 97.1641 2.09375 90.9801 2.09375ZM91.8377 12.8948C89.664 16.2255 86.0167 18.5453 83.6907 18.0764C81.3648 17.6077 81.2415 14.5279 83.4151 11.1972C85.5888 7.86677 89.2362 5.54691 91.5621 6.01586C93.888 6.48451 94.0114 9.56437 91.8377 12.8948Z" fill="white"/>
<path d="M18.9452 40.6061L9.72658 40.5179L11.3966 37.4639H19.2776L21.8701 32.5805L14.0662 32.5117L15.6088 29.6695L24.8861 29.6605L27.5287 24.7827H8.06773C9.33975 26.3818 9.69644 27.5986 8.43933 29.9151L0 45.4661H16.3228L18.9452 40.6061Z" fill="white"/>
<path d="M42.0175 24.7832L36.175 35.7353L34.7259 24.7832H29.4033L18.1785 45.4663H24.3966L29.6907 35.7126L30.8201 45.4551L30.9018 45.452L30.894 45.4663H37.8656L49.0916 24.7832H42.0175Z" fill="white"/>
<path d="M58.6458 40.5729L49.4453 40.4847L51.1153 37.4308H58.9963L61.5891 32.5474L53.7849 32.4785L55.3104 29.6682L64.5868 29.6601L67.2297 24.7832H50.9255L39.7007 45.4663H56.0235L58.6458 40.5729Z" fill="white"/>
<path d="M57.8619 45.4663H64.8968L68.6557 38.5799L71.1954 42.9311C73.3949 46.7557 77.553 47.1829 82.5392 45.9605C79.6487 44.5981 75.883 38.0274 75.883 38.0274C83.9041 36.7514 88.5613 24.8218 77.2945 24.7822L69.0798 24.7903L57.8616 45.4666L57.8619 45.4663ZM70.4047 35.3751L73.5291 29.6513H76.3276C79.5701 29.6513 78.3065 34.9884 70.4047 35.3751Z" fill="white"/>
<path d="M101.004 44.1376L106.875 33.6092H94.832L92.4834 38.1199L98.7726 38.1333C97.3052 40.1668 95.124 41.7326 92.5604 41.7326C86.4629 41.7326 90.9886 29.2886 97.4751 29.2886C98.9503 29.2886 99.6373 29.9619 99.9757 31.3651L107.269 30.7291C106.551 27.7187 104.595 24.7812 99.587 24.7812C81.7237 24.7812 76.3398 46.4839 89.7641 46.4839C92.9289 46.4839 95.7635 45.8289 98.2056 44.7477C99.047 44.4027 99.7892 44.1379 101.003 44.1379C101.003 44.1419 101.008 44.1369 101.018 44.1242L101.003 44.1379L101.004 44.1376Z" fill="white"/>
<path d="M113.444 24.782C113.217 24.782 105.622 24.7808 105.622 24.7808C110.236 28.6608 109.719 36.5948 109.719 36.5948L104.989 45.466C104.989 45.466 104.989 45.4664 104.989 45.4664H111.881L116.235 37.3532L129.509 24.782H121.71L115.538 31.072C115.538 31.072 115.373 27.1184 113.444 24.782Z" fill="white"/>
<path d="M41.171 21.8227L45.5693 13.6968C35.7623 19.3651 28.42 18.0773 32.4694 12.3576C34.4648 9.53944 38.5887 6.58547 43.9083 5.25244C36.7525 8.47688 37.2083 16.4199 46.6689 11.6225C49.5476 6.53187 50.3821 3.87548 53.3353 2.09375C17.8695 2.09375 17.6429 29.3797 41.171 21.8227Z" fill="white"/>
<path d="M56.8449 9.26252C53.1305 11.2951 47.8497 13.0076 47.8497 13.0076C47.8497 13.0076 43.8361 20.3614 43.4887 20.9771C42.5637 22.6162 41.407 23.1611 41.407 23.1611L49.3445 23.1449L56.8449 9.26221V9.26252Z" fill="white"/>
<path d="M55.6529 2.0924C52.5781 3.63575 50.6577 6.8577 48.8721 11.0176C59.1067 7.11072 59.8362 5.54773 63.7327 0C56.9755 4.80114 55.6529 2.0924 55.6529 2.0924Z" fill="white"/>
<path d="M78.9547 5.71001C70.5343 9.07155 66.6228 11.7803 62.4666 14.9608L65.4863 9.65518C67.5932 6.13939 69.0311 5.22921 71.668 5.27377L70.2267 7.68244L75.4608 5.5084C79.6193 3.51821 80.1636 2.09357 80.1639 2.09326H66.4451C63.2871 2.09326 61.4195 4.78798 58.6931 9.39905L51.2107 23.1453L58.1742 23.1288C61.0171 17.6755 68.9376 12.6194 66.6297 19.5778L65.3285 23.1291L72.2997 23.145L72.9646 19.2503C74.7384 8.68018 78.9547 5.70938 78.9547 5.70938V5.71001Z" fill="white"/>
<path d="M90.9801 2.09375C84.7959 2.09375 78.3715 6.80639 76.6309 12.6196C74.8904 18.4331 78.4923 23.1458 84.6763 23.1458C90.8602 23.1458 97.2849 18.4331 99.0255 12.6196C100.766 6.80639 97.1641 2.09375 90.9801 2.09375ZM91.8377 12.8948C89.664 16.2255 86.0167 18.5453 83.6907 18.0764C81.3648 17.6077 81.2415 14.5279 83.4151 11.1972C85.5888 7.86677 89.2362 5.54691 91.5621 6.01586C93.888 6.48451 94.0114 9.56437 91.8377 12.8948Z" fill="white"/>
<path d="M18.9452 40.6061L9.72658 40.5179L11.3966 37.4639H19.2776L21.8701 32.5805L14.0662 32.5117L15.6088 29.6695L24.8861 29.6605L27.5287 24.7827H8.06773C9.33975 26.3818 9.69644 27.5986 8.43933 29.9151L0 45.4661H16.3228L18.9452 40.6061Z" fill="white"/>
<path d="M42.0175 24.7832L36.175 35.7353L34.7259 24.7832H29.4033L18.1785 45.4663H24.3966L29.6907 35.7126L30.8201 45.4551L30.9018 45.452L30.894 45.4663H37.8656L49.0916 24.7832H42.0175Z" fill="white"/>
<path d="M58.6458 40.5729L49.4453 40.4847L51.1153 37.4308H58.9963L61.5891 32.5474L53.7849 32.4785L55.3104 29.6682L64.5868 29.6601L67.2297 24.7832H50.9255L39.7007 45.4663H56.0235L58.6458 40.5729Z" fill="white"/>
<path d="M57.8619 45.4663H64.8968L68.6557 38.5799L71.1954 42.9311C73.3949 46.7557 77.553 47.1829 82.5392 45.9605C79.6487 44.5981 75.883 38.0274 75.883 38.0274C83.9041 36.7514 88.5613 24.8218 77.2945 24.7822L69.0798 24.7903L57.8616 45.4666L57.8619 45.4663ZM70.4047 35.3751L73.5291 29.6513H76.3276C79.5701 29.6513 78.3065 34.9884 70.4047 35.3751Z" fill="white"/>
<path d="M101.004 44.1376L106.875 33.6092H94.832L92.4834 38.1199L98.7726 38.1333C97.3052 40.1668 95.124 41.7326 92.5604 41.7326C86.4629 41.7326 90.9886 29.2886 97.4751 29.2886C98.9503 29.2886 99.6373 29.9619 99.9757 31.3651L107.269 30.7291C106.551 27.7187 104.595 24.7812 99.587 24.7812C81.7237 24.7812 76.3398 46.4839 89.7641 46.4839C92.9289 46.4839 95.7635 45.8289 98.2056 44.7477C99.047 44.4027 99.7892 44.1379 101.003 44.1379C101.003 44.1419 101.008 44.1369 101.018 44.1242L101.003 44.1379L101.004 44.1376Z" fill="white"/>
<path d="M113.444 24.782C113.217 24.782 105.622 24.7808 105.622 24.7808C110.236 28.6608 109.719 36.5948 109.719 36.5948L104.989 45.466C104.989 45.466 104.989 45.4664 104.989 45.4664H111.881L116.235 37.3532L129.509 24.782H121.71L115.538 31.072C115.538 31.072 115.373 27.1184 113.444 24.782Z" fill="white"/>
</svg>
