<svg width="1314" height="405" viewBox="0 0 1314 405" fill="none" xmlns="http://www.w3.org/2000/svg">
<path d="M439.438 189.512H279.348L283.497 164.982L364.832 57.324V56.8014H310.347L319.624 4.89949H473.768L469.653 29.4296L390.898 137.088V137.61H448.747L439.438 189.512ZM596.424 189.512L605.734 137.61H538.869L541.45 122.128H597.208L605.995 71.5325H550.465L553.046 56.8014H617.33L626.639 4.89949H487.978L455.444 189.512H596.424ZM611.907 189.512L643.951 4.89949H736.131C775.133 4.89949 808.157 20.1206 808.157 61.7009C808.157 84.1732 797.835 105.339 775.884 117.718L792.151 188.99V189.512H712.613L704.087 128.073H696.868L686.285 189.512H611.907ZM705.655 79.0124H720.125C730.97 79.0124 736.654 73.0677 736.654 65.3265C736.654 56.2788 731.231 53.9597 722.967 53.9597H710.065L705.688 79.0124H705.655ZM812.534 106.123C812.534 51.6406 848.171 0 917.877 0C974.943 0 1008.26 34.8517 1008.26 87.5375C1008.26 140.223 972.101 194.412 902.917 194.412C845.852 194.412 812.534 158.776 812.534 106.123ZM893.346 130.13C893.346 139.668 895.665 145.352 903.146 145.352C916.571 145.352 919.151 127.779 924.051 94.2335C925.848 82.1154 927.416 71.7612 927.416 64.02C927.416 54.4823 925.096 49.0602 917.616 49.0602C904.191 49.0602 901.61 66.1104 896.711 99.6556C894.914 111.774 893.346 122.389 893.346 130.13ZM151.303 306.087V307.133C168.092 309.974 186.156 324.444 186.156 349.987C186.156 382.258 156.986 399.308 124.452 399.308H0L32.0114 214.696H125.726C165.479 214.696 196.217 226.062 196.217 257.55C196.217 282.864 175.801 304.291 151.303 306.087ZM112.824 337.836C112.824 329.311 107.401 325.947 100.183 325.947H84.4382L79.7998 352.273H98.1247C105.082 352.273 112.856 348.158 112.856 337.803L112.824 337.836ZM123.407 272.51C123.407 265.291 118.507 261.927 111.779 261.927H95.5115L91.1344 286.457H110.243C117.985 286.457 123.407 280.512 123.407 272.51ZM321.714 214.696L300.286 333.198C298.751 341.723 294.864 348.68 285.816 348.68C278.858 348.68 274.71 344.565 274.71 337.052C274.71 331.63 276.768 322.092 278.336 313.829L295.909 214.696H221.303L205.82 305.075C203.24 320.035 200.136 333.459 200.136 345.349C200.136 387.942 239.138 404.208 279.904 404.208C332.33 404.208 361.239 379.155 367.706 342.246L389.396 214.696H321.747H321.714ZM482.817 214.696H408.472L375.938 399.308H505.813L515.122 347.406H459.363L482.849 214.696H482.817ZM600.834 347.374L624.32 214.663H549.943L517.408 399.276H647.283L656.593 347.374H600.834ZM792.412 279.989C772.03 273.783 753.411 273.783 753.411 263.723C753.411 259.085 757.527 256.505 766.836 256.505C785.683 256.505 803.257 266.826 816.16 276.886L851.797 238.932C826.22 217.766 787.251 209.763 760.14 209.763C710.816 209.763 677.008 236.613 677.008 278.454C677.008 307.623 693.536 324.412 721.922 333.459C742.305 339.927 763.243 340.417 763.243 350.771C763.243 355.67 758.343 357.989 749.034 357.989C727.083 357.989 706.7 345.087 690.695 332.185L655.057 370.14C680.862 395.193 723.751 404.208 753.443 404.208C802.244 404.208 839.678 379.939 839.678 336.824C839.678 306.871 821.876 289.07 792.445 280.022L792.412 279.989ZM973.897 214.696L962.791 276.919H936.986L948.092 214.696H873.747L841.213 399.308H915.33L926.958 333.982H952.535L940.906 399.308H1015.51L1048.31 214.696H973.93H973.897ZM1035.63 399.276H1109.75L1142.55 214.663H1068.2L1035.67 399.276H1035.63ZM1154.4 214.696L1145.09 266.598H1187.43L1164.43 399.308H1238.55L1261.77 266.598H1304.37L1313.68 214.696H1154.37H1154.4Z" fill="black"/>
</svg>
