<svg width="245" height="647" viewBox="0 0 245 647" fill="none" xmlns="http://www.w3.org/2000/svg">
<path fill-rule="evenodd" clip-rule="evenodd" d="M76.7878 0.0128658C101.318 -0.457065 118.594 12.0312 131.514 23.5634C150.815 40.791 164.67 64.6775 174.352 91.5143C177.249 99.5431 179.538 107.924 182.063 116.361C185.749 128.678 186.943 141.559 189.667 155.036C191.5 164.109 191.468 174.105 193.094 183.664C193.343 187.048 193.594 190.434 193.844 193.819C194.058 198.788 194.272 203.757 194.486 208.727C194.593 213.551 194.7 218.378 194.807 223.203V230.549L194.593 230.441C192.7 225.452 188.667 221.113 185.383 217.369C173.586 203.922 155.359 195.325 138.903 186.689C132.372 183.269 125.837 179.846 119.305 176.426C118.627 174.986 117.948 173.545 117.27 172.105C115.496 168.532 113.935 164.913 112.344 160.978C109.692 154.422 108.333 148.017 106.989 139.696C106.882 138.256 106.775 136.815 106.668 135.374C107.853 127.94 108.441 122.154 113.093 118.414C118.239 114.277 127.117 112.781 134.941 115.713C146.34 119.986 155.083 127.488 161.608 136.671C163.75 140.091 165.892 143.513 168.033 146.934C168.997 148.914 169.961 150.895 170.925 152.875C170.903 150.326 169.773 147.88 169.104 145.745C166.951 138.862 164.965 132.402 162.357 126.192C151.882 101.245 137.976 79.967 117.913 64.7228C111.823 60.0959 105.337 55.5208 97.136 53.0556C93.091 51.8392 87.1525 51.7441 83.6419 53.4877C73.0619 58.7423 70.8461 77.7243 73.682 93.3508C77.3961 113.814 83.2028 130.959 91.0315 147.15C93.423 151.758 95.8155 156.369 98.2069 160.978C99.4203 163.101 100.635 165.228 101.848 167.351C100.813 166.811 99.778 166.271 98.7424 165.731C95.1108 163.829 91.5766 161.862 88.0328 160.005C76.6699 154.052 65.7087 147.641 54.726 141.424C50.9252 139.272 47.2839 136.969 43.588 134.834C42.5224 134.219 40.8228 133.684 40.161 132.674C39.6608 130.694 39.1618 128.712 38.6616 126.732C37.1494 121.393 36.2969 115.799 35.0204 109.987C27.3137 74.8906 30.8661 33.6113 48.8357 13.0845C53.3284 7.95199 59.662 4.14826 66.8278 1.74135C68.7556 1.30923 70.6833 0.877106 72.611 0.444986C74.0033 0.301306 75.3955 0.156546 76.7878 0.0128658ZM31.272 135.374L33.8423 139.804C36.1802 143.16 39.06 146.438 42.3029 148.878C47.5088 152.796 53.5147 156.027 59.3311 159.249C69.9176 165.114 80.4451 171.588 91.2457 177.29C96.6712 180.135 102.099 182.98 107.524 185.825C109.916 192.342 112.308 198.86 114.7 205.378C119.435 218.228 124.937 231.003 130.871 242.972C133.584 248.302 136.298 253.632 139.01 258.961C123.911 251.076 108.808 243.187 93.7089 235.302C81.7024 228.736 69.7826 221.788 57.9389 215.209C48.8357 210.152 39.7904 204.862 31.3791 199.004C31.3438 177.797 31.3073 156.582 31.272 135.374ZM124.553 194.467C126.66 194.736 128.577 196.084 130.336 196.844C133.958 198.409 137.453 199.896 140.831 201.597C157.302 209.891 173.232 218.483 184.098 232.385C187.461 236.688 190.406 240.872 193.094 245.997C193.687 247.127 194.641 248.269 194.807 249.778C189.337 253.322 188.376 264.36 190.416 272.573C193.287 284.125 197.69 293.951 202.733 303.361C204.838 307.142 206.946 310.923 209.051 314.704C203.768 310.347 198.484 305.99 193.201 301.633C180.81 291.908 168.825 281.115 160.001 267.819C149.719 252.327 141.934 234.854 133.763 217.045C130.693 209.52 127.622 201.992 124.553 194.467ZM31.3791 214.236C35.3052 216.721 39.2335 219.206 43.1596 221.69C53.4398 227.739 63.7231 233.791 74.0033 239.84C88.0671 247.437 102.135 255.036 116.199 262.634C131.901 271.031 147.534 278.785 161.608 288.669C173.662 297.134 186.517 306.215 192.13 321.078C196.583 332.867 194.915 354.335 194.915 370.448V442.288C194.915 443.706 195.373 446.854 194.7 447.797C187.985 443.46 183.702 436.1 179.493 429.216C170.963 415.265 165.713 399.006 158.609 383.411C156.504 378.263 154.396 373.112 152.29 367.963L152.397 367.855C158.68 371.599 164.964 375.346 171.246 379.09C171.761 343.346 142.987 334.027 120.804 320.97C111.238 315.641 101.668 310.311 92.1025 304.982C99.2415 314.631 106.383 324.284 113.522 333.934C122.556 346.986 131.402 360.438 139.118 374.769C144.856 385.428 149.765 396.38 155.075 407.61C158.279 414.388 160.982 421.452 163.964 428.568C165.087 431.249 167.185 434.559 167.498 437.642H167.391C164.64 435.268 162.441 432.17 159.68 429.756C153.358 424.231 145.82 419.476 138.154 415.388C118.527 404.922 95.6056 398.393 71.5401 392.378C58.3362 389.078 44.4941 387.517 31.4862 384.168V327.992H31.5933C42.3982 332.389 52.4341 338.143 64.5788 341.064C70.9703 342.601 79.071 342.092 81.1787 337.067C84.3723 329.454 77.0651 318.234 74.3245 313.84C66.8642 301.88 57.428 291.296 47.1222 282.187C43.9093 279.559 40.6964 276.929 37.4836 274.301C35.4852 272.932 33.4846 271.565 31.4862 270.196C31.4508 251.545 31.4144 232.888 31.3791 214.236ZM85.1412 416.036C102.485 415.725 116.23 420.349 127.765 426.191C159.385 442.206 180.747 468.212 191.166 505.593C192.666 510.973 193.185 516.69 194.272 522.554C194.965 526.29 195.475 534.473 194.807 538.543V541.891C194.053 546.388 194.105 550.886 193.094 555.071C189.767 568.843 184.781 578.852 176.922 587.804C174.35 590.734 166.215 598.111 162.036 598.823C157.917 595.518 150.202 596.123 143.08 596.123H110.416C103.465 596.123 97.7732 596.715 93.1734 594.286C63.2326 578.477 45.173 550.796 35.0204 514.884C33.988 511.233 33.7877 507.661 32.9855 503.757C28.3065 480.984 33.173 455.799 41.4461 440.991C47.4595 430.229 57.4484 422.337 70.1478 418.305C73.3061 417.303 76.7096 416.975 80.2148 416.361C81.8566 416.253 83.4995 416.145 85.1412 416.036ZM167.498 437.642C167.716 437.837 167.574 437.645 167.712 437.967L167.498 437.642ZM84.6058 462.057C82.9993 462.309 81.3929 462.562 79.7864 462.813C76.5479 463.759 73.4164 465.423 71.433 467.675C63.6332 476.526 67.359 492.808 71.8613 502.244C82.2732 524.067 99.8948 540.033 121.875 550.21C131.95 554.875 150.63 559.141 160.001 550.858C171.045 541.096 164.219 520.833 158.395 510.995C148.205 493.779 134.52 480.78 116.735 471.24C107.674 466.381 98.4425 462.153 84.6058 462.057ZM243.429 596.123H244.286C243.748 598.588 240.262 602.6 238.824 604.657C236.004 608.798 233.183 612.94 230.363 617.08C228.578 619.42 226.794 621.762 225.008 624.102L223.509 627.991C221.692 632.455 220.206 638.077 217.619 642.035C213.693 642.216 209.764 642.395 205.838 642.575V642.251C208.586 635.95 211.337 629.647 214.085 623.346C214.538 621.635 214.092 618.719 213.87 617.296C212.377 607.72 211.693 604.496 207.016 598.283L207.123 598.175C210.372 598.031 213.621 597.887 216.869 597.743C217.871 597.729 219.853 597.273 220.51 597.851C223.348 600.792 222.478 606.135 223.938 610.599L224.152 610.491C227.257 605.953 230.363 601.416 233.469 596.879C236.789 596.627 240.109 596.374 243.429 596.123ZM20.8837 613.947C25.2029 614.236 29.5231 614.523 33.8423 614.812C32.3783 618.196 30.9154 621.582 29.4514 624.967C25.1322 624.75 20.8119 624.534 16.4928 624.318C15.6424 626.172 14.2405 628.496 14.0296 630.692C18.9196 631.016 23.8117 631.34 28.7017 631.664C28.5785 633.304 25.2918 640.836 24.3108 641.819C18.3852 641.423 12.4585 641.027 6.53285 640.631C4.6833 640.345 1.33656 640.957 0 639.983C3.28356 630.981 6.56926 621.977 9.85282 612.975C11.9905 607.671 14.4472 603.207 11.4593 597.095L11.5664 596.879C22.4173 597.455 33.2726 598.031 44.1235 598.607C42.5171 601.992 40.9106 605.377 39.3042 608.762C33.9505 608.51 28.5935 608.258 23.2398 608.006C22.4548 609.986 21.6687 611.967 20.8837 613.947ZM47.6577 598.607C49.8049 598.581 56.6248 598.385 58.046 599.039C58.9745 606.781 59.9019 614.524 60.8305 622.266L61.0447 622.158C64.9001 614.524 68.7556 606.889 72.611 599.255C77.5728 599.363 82.5356 599.471 87.4973 599.579C79.7158 614.234 71.932 628.893 64.1504 643.548C61.3724 643.575 52.2017 643.758 50.3351 642.9L48.3002 622.374L47.8719 622.698L38.4474 642.575C34.8779 642.395 31.3073 642.216 27.7378 642.035L27.6307 641.819C32.0924 631.99 36.5561 622.157 41.0177 612.327C43.2303 607.754 45.4451 603.18 47.6577 598.607ZM194.272 598.607C205.326 598.482 206.941 602.52 209.801 610.599L209.48 610.815C208.033 611.456 197.469 612.94 196.307 612.435C195.933 607.42 189.802 607.979 186.561 609.95C182.371 612.499 174.94 622.286 176.28 630.152C178.229 641.601 191.674 632.171 194.058 627.343C190.025 627.451 185.989 627.559 181.956 627.667V627.559C183.491 624.318 185.026 621.077 186.561 617.837C194.057 617.621 201.556 617.404 209.051 617.188C205.482 624.822 201.911 632.457 198.342 640.091C194.447 640.063 192.12 642.333 189.238 643.44C182.772 645.921 171.846 647.095 166.213 643.116C161.037 639.459 159.51 630.362 162.143 622.806C165.524 613.106 172.709 606.096 181.528 601.848C184.189 600.566 187.351 599.72 190.524 599.039C191.773 598.896 193.022 598.751 194.272 598.607ZM91.3528 599.579C103.489 599.652 115.629 599.723 127.765 599.796C125.767 603.253 123.766 606.709 121.768 610.166H106.882C105.066 610.166 102.022 609.769 100.777 610.491C99.778 612.363 98.7778 614.236 97.7785 616.108H97.9927C101.225 617.345 112.714 615.087 114.914 616.648C112.986 620.105 111.058 623.562 109.131 627.019C103.419 626.983 97.7068 626.947 91.9954 626.911C91.2768 627.415 88.4858 632.826 88.6754 633.393C95.2436 633.537 101.813 633.681 108.381 633.825C106.49 637.282 104.596 640.739 102.705 644.196C94.495 644.088 86.2829 643.98 78.0729 643.872C76.0981 643.867 69.1026 644.22 68.0059 643.44C75.7875 628.821 83.5712 614.198 91.3528 599.579ZM140.189 599.579C149.612 599.461 159.178 598.792 163 604.333C165 607.233 164.528 611.954 163.214 615.136C160.681 621.267 154.918 627.314 147.257 628.099V628.424C149.578 632.821 152.763 637.001 155.932 640.631C156.944 641.79 160.619 644.078 161.072 645.168H160.858C158.86 645.565 156.859 645.96 154.861 646.356C142.557 648.707 137.798 640.692 133.763 634.149C132.834 632.637 131.907 631.124 130.978 629.612H130.871C128.766 633.285 126.658 636.958 124.553 640.631C123.921 641.683 123.445 643.575 122.411 644.196C121.45 644.584 107.534 644.437 106.775 644.088C115.163 629.289 123.553 614.487 131.942 599.688C134.69 599.652 137.44 599.615 140.189 599.579ZM145.972 610.058C144.817 610.498 142.729 609.908 141.688 610.382C139.511 614.38 137.332 618.377 135.155 622.374L135.262 622.482C141.011 622.106 146.955 620.636 149.72 617.188C152.738 613.426 152.516 609.896 145.972 610.058Z" fill="#C0C0C0"/>
</svg>
